#!OML:ASF \\sashay\E\Suitcase\Project 1\Capture day 1\Session 1\Male1.ASF
:FULLY-SPECIFIED
:DEGREES
349
root 1.42051 17.3586 -21.5487 7.2106 7.3132 2.97738
lowerback 6.25751 -2.90292 -2.9173
upperback 1.21693 -4.02763 0.932264
thorax -1.97732 -1.99072 2.9015
lowerneck -20.656 1.15937 -1.51697
upperneck 13.5273 1.95685 0.286849
head 7.51897 0.879872 0.579212
rclavicle 5.81445e-015 3.97569e-015
rhumerus -42.5931 -31.1816 -58.1197
rradius 15.1597
rwrist 7.5478
rhand -9.48674 17.3474
rfingers 7.12502
rthumb 16.4779 -11.9728
lclavicle 5.81445e-015 3.97569e-015
lhumerus -34.6676 3.29909 79.7934
lradius 35.9621
lwrist -5.52628
lhand -1.54217 42.0234
lfingers 7.12502
lthumb 24.1124 70.5282
rfemur -29.5645 1.17123 15.13
rtibia 16.3541
rfoot -4.91955 -13.5182
rtoes 6.52135
lfemur 11.1495 -5.82314 -25.3781
ltibia 12.5828
lfoot -10.968 -4.87254
ltoes -3.53333
350
root 1.40589 17.3799 -21.4008 8.13625 7.05269 2.69762
lowerback 5.20092 -2.80421 -2.49202
upperback 0.980566 -3.84565 1.05324
thorax -1.6645 -1.90586 2.72254
lowerneck -20.7053 1.11028 -1.35809
upperneck 13.4704 1.90476 -0.0415222
head 7.51419 0.830791 0.438482
rclavicle 1.88845e-014 -1.51076e-014
rhumerus -43.4637 -33.4099 -55.9986
rradius 14.3488
rwrist 9.94116
rhand -9.07808 18.6879
rfingers 7.12502
rthumb 16.8713 -10.5992
lclavicle 1.88845e-014 -1.51076e-014
lhumerus -34.927 3.3926 79.9927
lradius 35.4989
lwrist -5.77455
lhand -1.19535 42.3916
lfingers 7.12502
lthumb 24.445 70.8519
rfemur -30.169 1.2306 15.592
rtibia 15.9873
rfoot -3.42597 -13.8663
rtoes 9.13356
lfemur 10.2528 -6.04103 -25.0476
ltibia 13.0611
lfoot -10.0686 -4.80559
ltoes -3.68294
351
root 1.39368 17.3921 -21.2587 7.68012 7.54164 2.31822
lowerback 5.64453 -2.93585 -1.89146
upperback 1.11931 -3.98984 1.20659
thorax -1.78995 -1.97931 2.57571
lowerneck -20.2581 1.05933 -1.23418
upperneck 12.7349 1.83262 -0.30639
head 7.20142 0.784212 0.315215
rclavicle -9.8299e-014 2.50469e-014
rhumerus -43.5957 -33.9425 -55.47
rradius 14.0302
rwrist 10.5254
rhand -9.50739 18.3786
rfingers 7.12502
rthumb 16.458 -10.9433
lclavicle -9.8299e-014 2.50469e-014
lhumerus -35.0057 3.78877 80.0922
lradius 34.9889
lwrist -6.15963
lhand -0.661843 42.7624
lfingers 7.12502
lthumb 24.9563 71.1527
rfemur -29.1288 0.128192 16.5553
rtibia 15.7945
rfoot -2.7732 -13.8624
rtoes 7.03752
lfemur 10.7661 -6.65708 -24.5886
ltibia 13.7487
lfoot -9.37125 -4.95172
ltoes -3.46007
352
root 1.38209 17.4206 -21.1229 7.80033 7.49124 1.78871
lowerback 5.72432 -2.88352 -1.18864
upperback 0.972725 -3.87454 1.39071
thorax -2.02596 -1.92067 2.37628
lowerneck -20.532 0.998078 -1.30792
upperneck 12.9303 1.76128 -0.215615
head 7.30992 0.752745 0.351241
rclavicle -6.35117e-014 2.10712e-014
rhumerus -43.8636 -34.0877 -55.1508
rradius 14.0376
rwrist 10.5332
rhand -9.15671 18.8119
rfingers 7.12502
rthumb 16.7956 -10.4817
lclavicle -6.35117e-014 2.10712e-014
lhumerus -35.2228 4.07587 80.1949
lradius 34.3428
lwrist -6.68637
lhand -0.676605 43.0126
lfingers 7.12502
lthumb 24.9421 71.4049
rfemur -28.8696 -0.000443992 17.4088
rtibia 15.8326
rfoot -2.95776 -13.9307
rtoes 8.06943
lfemur 10.5395 -6.75544 -23.9317
ltibia 14.4356
lfoot -8.56124 -5.34394
ltoes -3.30575
353
root 1.36332 17.4331 -20.9899 8.06597 7.38003 1.43638
lowerback 5.59862 -2.73761 -0.890254
upperback 0.876169 -3.65637 1.61789
thorax -2.06961 -1.81231 2.42486
lowerneck -20.8741 1.0394 -1.43503
upperneck 13.0626 1.86788 -0.25392
head 7.40894 0.79108 0.374798
rclavicle 4.77083e-015 -1.31198e-014
rhumerus -43.6699 -33.0911 -55.7559
rradius 14.2589
rwrist 9.11739
rhand -9.67919 17.9213
rfingers 7.12502
rthumb 16.2926 -11.4143
lclavicle 4.77083e-015 -1.31198e-014
lhumerus -35.3364 4.42568 80.4215
lradius 33.7714
lwrist -7.23346
lhand -0.11128 43.2375
lfingers 7.12502
lthumb 25.4838 71.5535
rfemur -28.7807 -0.0941953 18.1002
rtibia 15.9226
rfoot -2.9589 -13.2385
rtoes 8.68211
lfemur 10.1213 -7.08154 -23.5252
ltibia 15.3333
lfoot -7.70138 -5.40369
ltoes -3.43018
354
root 1.3474 17.4498 -20.8379 8.13771 7.22146 1.27982
lowerback 5.41691 -2.69621 -0.738826
upperback 0.867284 -3.58926 1.76342
thorax -1.98048 -1.78066 2.47559
lowerneck -20.6148 1.14795 -1.59165
upperneck 13.0869 2.0767 -0.37254
head 7.37281 0.871345 0.384448
rclavicle -1.33186e-014 7.95139e-015
rhumerus -44.3514 -34.7944 -54.033
rradius 13.8362
rwrist 11.3355
rhand -9.304 18.7016
rfingers 7.12502
rthumb 16.6538 -10.6039
lclavicle -1.33186e-014 7.95139e-015
lhumerus -35.4073 5.00223 80.55
lradius 33.0934
lwrist -7.74115
lhand -0.584339 43.0986
lfingers 7.12502
lthumb 25.0306 71.4786
rfemur -28.3729 -0.988508 18.8063
rtibia 15.9411
rfoot -2.93909 -11.4996
rtoes 9.6172
lfemur 9.9294 -7.30933 -23.3725
ltibia 16.3578
lfoot -7.03618 -5.5676
ltoes -3.99492
355
root 1.34424 17.468 -20.6916 8.09415 6.3087 0.500822
lowerback 5.21107 -2.32191 -0.075522
upperback 0.901098 -3.04796 2.08966
thorax -1.873 -1.51528 2.39379
lowerneck -20.5709 1.0002 -1.78685
upperneck 13.1101 1.9071 -0.231818
head 7.37097 0.794052 0.441732
rclavicle 5.26779e-015 2.66371e-014
rhumerus -45.0642 -36.3884 -52.1404
rradius 13.2529
rwrist 13.0181
rhand -9.34579 18.2803
rfingers 7.12502
rthumb 16.6136 -11.0286
lclavicle 5.26779e-015 2.66371e-014
lhumerus -35.7744 5.36347 80.8488
lradius 32.8346
lwrist -7.90775
lhand -0.724754 42.6976
lfingers 7.12502
lthumb 24.896 71.0963
rfemur -28.0958 -0.783122 19.9303
rtibia 16.089
rfoot -2.83835 -10.0673
rtoes 11.0121
lfemur 9.8316 -7.18729 -22.8316
ltibia 17.3463
lfoot -6.10162 -5.41312
ltoes -4.74249
356
root 1.32165 17.4949 -20.5587 8.19174 6.34608 0.276925
lowerback 5.36976 -2.29493 0.182353
upperback 0.805211 -2.99105 2.19633
thorax -2.07015 -1.48623 2.36628
lowerneck -20.6902 1.14084 -1.87088
upperneck 12.8634 2.11384 -0.193755
head 7.30587 0.894665 0.491901
rclavicle -1.41137e-014 -1.43125e-014
rhumerus -44.7304 -35.5142 -52.9648
rradius 13.3633
rwrist 11.788
rhand -9.39414 19.0164
rfingers 7.12502
rthumb 16.567 -10.2964
lclavicle -1.41137e-014 -1.43125e-014
lhumerus -35.8143 5.77339 80.825
lradius 32.2196
lwrist -8.27802
lhand -0.275119 42.6428
lfingers 7.12502
lthumb 25.3268 70.9811
rfemur -27.8568 -0.904586 20.3847
rtibia 16.277
rfoot -3.1534 -9.65895
rtoes 10.6616
lfemur 9.31714 -7.37647 -22.4292
ltibia 18.3154
lfoot -4.94047 -5.99354
ltoes -4.89961
357
root 1.30949 17.513 -20.4162 8.14599 5.80157 0.0320227
lowerback 5.27201 -2.01347 0.20539
upperback 0.858308 -2.61105 2.49516
thorax -1.96256 -1.29738 2.63002
lowerneck -20.5102 0.894789 -2.03968
upperneck 12.7445 1.89672 -0.608564
head 7.24283 0.743353 0.354506
rclavicle -2.09718e-014 -1.43125e-014
rhumerus -44.838 -36.0744 -52.063
rradius 13.0899
rwrist 12.4553
rhand -9.71893 18.4298
rfingers 7.12502
rthumb 16.2543 -10.9088
lclavicle -2.09718e-014 -1.43125e-014
lhumerus -35.96 6.19933 81.2612
lradius 31.7595
lwrist -8.8496
lhand -0.469131 42.2518
lfingers 7.12502
lthumb 25.141 70.6163
rfemur -27.3384 -0.714832 20.8289
rtibia 16.3152
rfoot -3.5086 -9.29688
rtoes 9.6643
lfemur 9.11489 -7.18586 -22.2231
ltibia 19.507
lfoot -3.84666 -6.33669
ltoes -4.30832
358
root 1.29176 17.5369 -20.2734 8.14577 5.49857 0.0444356
lowerback 5.14915 -1.85592 0.115167
upperback 0.889488 -2.40751 2.57513
thorax -1.86344 -1.19616 2.74401
lowerneck -20.4038 0.966564 -1.96121
upperneck 12.6898 1.99054 -0.73854
head 7.20895 0.780659 0.309366
rclavicle 2.88238e-014 -2.70347e-014
rhumerus -44.5941 -35.7973 -52.4445
rradius 13.1599
rwrist 12.1842
rhand -10.1068 18.101
rfingers 7.12502
rthumb 15.8808 -11.2678
lclavicle 2.88238e-014 -2.70347e-014
lhumerus -36.0375 6.73149 81.3469
lradius 31.2415
lwrist -9.59584
lhand -0.46259 42.4017
lfingers 7.12502
lthumb 25.1472 70.7653
rfemur -26.8355 -0.830542 20.9984
rtibia 16.3676
rfoot -3.70129 -8.90368
rtoes 10.1164
lfemur 8.82213 -7.35578 -22.218
ltibia 20.8083
lfoot -2.97126 -6.79666
ltoes -2.9543
359
root 1.27724 17.5529 -20.1294 8.14659 5.34757 -0.237353
lowerback 5.16059 -1.80333 0.437915
upperback 0.777746 -2.31429 2.69112
thorax -1.99716 -1.14985 2.67992
lowerneck -20.6584 0.991319 -1.81007
upperneck 13.3285 2.04462 -0.990673
head 7.46697 0.77956 0.213009
rclavicle 2.74323e-014 0
rhumerus -45.4837 -37.2902 -50.7046
rradius 12.6981
rwrist 13.8743
rhand -9.69665 18.5009
rfingers 7.12502
rthumb 16.2758 -10.836
lclavicle 2.74323e-014 0
lhumerus -36.4395 6.74997 81.4642
lradius 30.9567
lwrist -9.33383
lhand -0.292197 42.899
lfingers 7.12502
lthumb 25.3105 71.2397
rfemur -26.3269 -1.23319 21.5825
rtibia 16.3534
rfoot -4.07013 -8.04744
rtoes 10.9443
lfemur 8.23529 -7.41681 -21.8966
ltibia 22.2122
lfoot -1.69154 -7.26834
ltoes -6.15213
360
root 1.26246 17.5749 -19.9901 8.43118 5.04137 -0.499576
lowerback 4.69543 -1.67703 0.735306
upperback 0.68013 -2.13564 2.83393
thorax -1.85054 -1.06287 2.63417
lowerneck -20.3331 1.06042 -1.94077
upperneck 13.5619 2.19444 -1.11099
head 7.49025 0.83037 0.211636
rclavicle -3.24019e-014 2.38542e-015
rhumerus -45.3443 -37.0552 -50.8547
rradius 12.7529
rwrist 13.8961
rhand -10.1149 17.1054
rfingers 7.12502
rthumb 15.873 -12.2641
lclavicle -3.24019e-014 2.38542e-015
lhumerus -36.6564 6.96427 81.5702
lradius 30.5421
lwrist -9.49286
lhand -0.209732 42.8718
lfingers 7.12502
lthumb 25.3895 71.2012
rfemur -26.1849 -0.675646 21.8367
rtibia 16.4421
rfoot -4.60965 -7.91455
rtoes 14.9726
lfemur 7.33689 -7.29256 -21.5063
ltibia 23.7368
lfoot -0.734162 -7.87379
ltoes -7.01585
361
root 1.23829 17.5974 -19.8463 8.4255 5.03462 -0.83464
lowerback 4.49781 -1.65532 1.03013
upperback 0.732212 -2.09594 2.98335
thorax -1.69306 -1.04532 2.61241
lowerneck -20.8378 1.06219 -1.96634
upperneck 14.2268 2.22221 -1.05511
head 7.79509 0.835213 0.244111
rclavicle -1.11319e-014 1.66979e-014
rhumerus -45.3159 -37.225 -50.9375
rradius 12.8502
rwrist 13.813
rhand -10.1134 18.0347
rfingers 7.12502
rthumb 15.8744 -11.3346
lclavicle -1.11319e-014 1.66979e-014
lhumerus -36.8288 6.86916 81.7575
lradius 30.4737
lwrist -9.6659
lhand 0.543523 43.1264
lfingers 7.12502
lthumb 26.1109 71.3514
rfemur -25.6839 -0.763765 22.3921
rtibia 16.5122
rfoot -4.36272 -6.96241
rtoes 12.8548
lfemur 6.55373 -7.13934 -20.8992
ltibia 25.314
lfoot 0.670467 -8.65372
ltoes -4.77581
362
root 1.22642 17.6137 -19.707 8.60921 5.17527 -0.689215
lowerback 4.34946 -1.66932 0.965602
upperback 0.562955 -2.11559 3.0586
thorax -1.77819 -1.0538 2.72611
lowerneck -20.5577 0.834202 -1.97275
upperneck 14.3549 1.95066 -1.26845
head 7.79525 0.683387 0.139248
rclavicle 1.39149e-014 -2.3059e-014
rhumerus -45.3032 -37.0265 -50.8839
rradius 12.8083
rwrist 13.6535
rhand -10.3236 17.2312
rfingers 7.12502
rthumb 15.672 -12.1541
lclavicle 1.39149e-014 -2.3059e-014
lhumerus -36.8693 6.97544 81.9636
lradius 29.8013
lwrist -9.91537
lhand 0.558165 42.4159
lfingers 7.12502
lthumb 26.1249 70.6388
rfemur -25.3039 -1.42144 22.5072
rtibia 16.4247
rfoot -4.48849 -6.30886
rtoes 13.3046
lfemur 5.57659 -7.38312 -20.9091
ltibia 27.028
lfoot 1.90113 -9.13163
ltoes -3.46857
363
root 1.2135 17.6372 -19.5695 8.70723 5.33063 -0.536652
lowerback 3.9262 -1.71698 1.05651
upperback 0.652361 -2.19198 2.95764
thorax -1.45378 -1.09414 2.55762
lowerneck -20.4333 0.929489 -2.43079
upperneck 14.2594 2.09131 -0.658252
head 7.72884 0.789296 0.432491
rclavicle 3.51849e-014 -2.94201e-014
rhumerus -44.805 -36.8548 -51.5334
rradius 12.6842
rwrist 13.2457
rhand -10.2918 18.0938
rfingers 7.12502
rthumb 15.7027 -11.2891
lclavicle 3.51849e-014 -2.94201e-014
lhumerus -36.8599 6.57144 82.1084
lradius 29.7751
lwrist -9.57939
lhand 0.668337 42.5163
lfingers 7.12502
lthumb 26.2304 70.7235
rfemur -24.8016 -1.67648 22.4944
rtibia 16.4166
rfoot -4.56122 -6.15137
rtoes 13.4551
lfemur 4.50173 -7.34317 -20.8084
ltibia 28.8076
lfoot 3.8762 -9.28124
ltoes -0.771637
